<svg xmlns="http://www.w3.org/2000/svg" width="484.512" height="61.785" viewBox="0 0 484.512 61.785"><path d="M446.033 25.472a5.421 5.421 0 000 10.842h16.256a5.421 5.421 0 000-10.842zM5.419 11.382h49.859a5.42 5.42 0 100-10.839H5.419a5.42 5.42 0 000 10.839m49.914 14.145H5.367a5.366 5.366 0 000 10.732h49.966a5.366 5.366 0 000-10.732m95.385 0H100.75a5.366 5.366 0 100 10.732h49.968a5.366 5.366 0 100-10.732m94.838 0h-49.961a5.366 5.366 0 000 10.732h49.961a5.366 5.366 0 100-10.732M55.279 50.403H5.42a5.42 5.42 0 100 10.84h49.859a5.42 5.42 0 000-10.84M245.507.543h-49.859a5.42 5.42 0 000 10.839h49.859a5.42 5.42 0 100-10.839M383.436.001a5.689 5.689 0 00-5.69 5.69v50.4a5.69 5.69 0 1011.381 0v-50.4a5.69 5.69 0 00-5.691-5.69M245.507 50.403h-49.859a5.42 5.42 0 000 10.84h49.859a5.42 5.42 0 100-10.84M150.663.543h-49.858a5.42 5.42 0 100 10.839h49.858a5.42 5.42 0 100-10.839m-33.601 49.86h-16.257a5.42 5.42 0 100 10.84h16.257a5.42 5.42 0 100-10.84m183.602-25.775a5.585 5.585 0 008.346-.5 5.747 5.747 0 00-.617-7.557L293.461 1.639a5.583 5.583 0 00-8.015.126 5.734 5.734 0 00.286 7.936zm28.415 12.529a5.586 5.586 0 00-8.016.124 5.741 5.741 0 00.287 7.938l14.932 14.931a5.585 5.585 0 008.346-.507 5.743 5.743 0 00-.617-7.554zm6.995-35.412l-14.932 14.932a5.587 5.587 0 00.507 8.348 5.736 5.736 0 007.552-.617l14.934-14.932a5.579 5.579 0 00-.123-8.013 5.734 5.734 0 00-7.938.282m-35.518 35.619l-14.931 14.932a5.586 5.586 0 00.506 8.348 5.739 5.739 0 007.552-.617l14.932-14.932a5.583 5.583 0 00-.123-8.015 5.735 5.735 0 00-7.936.284m128.622-11.892a5.367 5.367 0 005.366-5.367v-8.83h44.6a5.367 5.367 0 000-10.733h-49.966a5.364 5.364 0 00-5.364 5.366v14.2a5.365 5.365 0 005.364 5.367m49.968 10.839a5.366 5.366 0 00-5.366 5.366v8.831h-44.6a5.366 5.366 0 000 10.732h49.966a5.367 5.367 0 005.366-5.366v-14.2a5.367 5.367 0 00-5.366-5.366"/></svg>